<svg width="264.58mm" height="233.2mm" version="1.1" viewBox="0 0 264.58 233.2" xmlns="http://www.w3.org/2000/svg">
 <defs>
  <clipPath id="clipPath268">
   <path d="m2309.9 3467.2c40.73-86.04 112.45-76.56 177.74-94.08 63.39-17.01 222.55-22.54 184.31 144.7-37.59 164.35-102.39 218.45-164.98 261.08-62.61 42.63-137.35 20.82-175.1-89.65-37.76-110.47-59.96-141.83-21.97-222.05z"/>
  </clipPath>
  <clipPath id="clipPath266">
   <path d="m2309.9 3467.2c40.73-86.04 112.45-76.56 177.74-94.08 63.39-17.01 222.55-22.54 184.31 144.7-37.59 164.35-102.39 218.45-164.98 261.08-62.61 42.63-137.35 20.82-175.1-89.65-37.76-110.47-59.96-141.83-21.97-222.05z"/>
  </clipPath>
  <clipPath id="cp51">
   <path d="m2449.4 3635c11.73 33.52 30.01 77.43 45.08 90.45 15.82 13.66 24.29 21.61 31.07 19.19 0.65-0.23-8.43-22.73-11.53-23.28-3.05-0.54 20.07 11.29 22.09 8.03 2.59-4.19 3.97-19.06 3.97-19.06s11.44-6.68 15.06-12.9c12.19-20.96 26.91-46.89 41.76-73.45 2.03-3.65-17.02-22.93-17.02-22.93s27.96 5.1 29.96 1.49c4.46-8.04 11.82-21.54 15.48-29.54 12.19-26.62 21.92-50.14 26.91-67.52 2.48-8.65-6.59-15.35-6.59-15.35s17.17-7.13 17.02-7.43c-2.51-4.73-4.22-17.82-45.14-16.76-41.97 1.08-76.6 13.26-91.6 18.73 20.48-7.48-88.19 116.97-76.52 150.33z"/>
  </clipPath>
  <clipPath id="cp57">
   <path d="m2380.2 3506c39.56-80.07 151.59-87.26 169.34-21.5 17.74 65.75-31.2 158.51-98.33 174.69-67.13 16.17-108.77-76.77-71.01-153.19z"/>
  </clipPath>
  <clipPath id="cp65">
   <path d="m2371 3496c37-74.87 142.27-81.35 159.09-19.74 16.83 61.61-28.95 148.35-92 163.35s-102.4-72.13-67.09-143.61z"/>
  </clipPath>
 </defs>
 <g transform="matrix(.24333 .48343 -.48343 .24333 1253.1 -1930.6)">
  <path d="m2301.7 3462.4c42.84-90.52 118.64-80.37 187.57-98.67 66.93-17.77 235.09-23.22 195.07 152.81-39.34 173-107.67 229.82-173.72 274.58-66.04 44.75-145.06 21.61-185.21-94.82-40.13-116.42-63.66-149.5-23.71-233.9z"/>
  <path d="m2567.9 3913.3 253.92-504.05-461.06-232.27-253.92 504.05z" clip-path="url(#clipPath268)" fill="#42b91f"/>
  <path d="m2302 3456.4c40.74-86.04 112.46-76.56 177.74-94.08 63.39-17.01 222.56-22.54 184.31 144.7-37.58 164.35-102.38 218.45-164.98 261.08s-137.35 20.82-175.1-89.65-59.95-141.83-21.97-222.05z" clip-path="url(#clipPath266)" fill="#6ee249"/>
  <path d="m2315.1 3647.9c-40.53 40.94-91.15 40.44-99.35-9.14s33.63-76.99 72.76-59.55c17.32 10.99 20.54 35.34 26.59 68.69z"/>
  <path d="m2307.4 3643.1c-34.54 34.64-77.9 34-85.13-8.19s28.48-65.32 62.07-50.33c33.59 15 57.6 23.88 23.06 58.52z" fill="#6ee249"/>
  <path d="m2416.9 3380.3c3.2-57.75-32.91-96.27-77.21-70.31-44.3 25.97-36.07 75.9 5.09 94.6 20.76 6.13 41.95-7.24 72.12-24.29z"/>
  <path d="m2407.7 3377.5c2.52-49.05-28.57-81.92-66.44-60.01-37.88 21.9-30.65 64.35 4.71 80.38 35.35 16.02 59.19 28.67 61.73-20.37z" fill="#6ee249"/>
  <path d="m2276.9 3586.2c-22.9 7.4-32.93 5.38-51.22 43.13 4.46-43.96 35.65-51.73 51.22-43.13zm103.44-266.8c-22.55 3.79-42.18 10.56-59.61 29.05 14.09-33.81 47-37.68 59.61-29.05zm-81.32 208.25c4.92-34.64 20.56-116.9 116.67-130.6-52.49 28.1-78.59 31.61-116.67 130.6z" fill="#98f477"/>
  <path d="m2295.7 3614.7c-11.83-21.88-53.66-10.08-44.9 14.49 12.82 36.01 56.74 7.38 44.9-14.49z" fill="#14390e"/>
  <path d="m2374.1 3392.6c-27.85 3.97-45.29-42-17.05-50.59 41.38-12.58 44.91 46.63 17.05 50.59z" fill="#14390e"/>
  <path d="m2516.8 3436.8c32.36 23.99 60.82 43.06 79.21 4.23 18.38-38.83-5.56-66.25-28.25-75.99-22.68-9.73-21.6 27.93-21.6 27.93s-61.72 19.85-29.36 43.83z" fill="#5579a9"/>
  <path d="m2498.1 3371c14.1-22.23 43.03-29.03 64.61-15.18s27.65 43.1 13.54 65.34c-14.1 22.24-43.02 29.04-64.61 15.19-21.58-13.85-27.64-43.1-13.54-65.35z" fill="#497621"/>
  <path d="m2502.8 3374c12.4-19.56 37.84-25.54 56.82-13.36s24.31 37.91 11.91 57.47-37.84 25.54-56.82 13.36-24.31-37.91-11.91-57.47z" fill="#ccc"/>
  <path d="m2508.9 3377.9c12.41-19.56 35.12-27.29 50.73-17.27s18.22 34 5.81 53.56c-12.4 19.55-35.11 27.29-50.72 17.27s-18.22-34-5.82-53.56z" fill="#fff"/>
  <path d="m2408.8 3659.5c37.08 15.65 67.96 30.45 44.08 66.15-23.87 35.69-59.61 29.05-79.54 14.47-19.92-14.59 12.89-32.9 12.89-32.9s-14.52-63.38 22.57-47.72z" fill="#5579a9"/>
  <path d="m2342.8 3677c-11.85 23.52-2.89 51.95 20 63.48 22.9 11.53 51.06 1.82 62.91-21.71 11.85-23.52 2.9-51.94-19.99-63.48-22.9-11.53-51.07-1.81-62.92 21.71z" fill="#497621"/>
  <path d="m2347.8 3679.5c-10.42 20.69-2.55 45.68 17.59 55.83 20.13 10.14 44.9 1.59 55.32-19.1 10.43-20.69 2.55-45.68-17.58-55.82-20.13-10.15-44.91-1.6-55.33 19.09z" fill="#ccc"/>
  <path d="m2354.3 3682.8c-10.43 20.69-5.45 44.22 11.11 52.56 16.57 8.35 38.44-1.66 48.87-22.35 10.42-20.69 5.44-44.22-11.12-52.57-16.57-8.34-38.44 1.67-48.86 22.36z" fill="#fff"/>
  <path d="m2365 3709.8c2.1001-4.1699 7.09-5.89 11.15-3.85 4.0701 2.0498 5.65 7.09 3.55 11.26-2.0999 4.1601-7.09 5.89-11.16 3.85-4.05-2.05-5.65-7.09-3.54-11.26z"/>
  <path d="m2518.7 3382.7c2.09-4.17 7.09-5.89 11.15-3.85 4.0599 2.0501 5.64 7.09 3.54 11.26-2.1001 4.1699-7.09 5.9-11.15 3.85-4.06-2.04-5.65-7.09-3.54-11.26z"/>
  <path d="m2326.8 3678.8c10.82 2.92-0.4-13.84 7.41-22.02 7.81-8.19 20.51-5.58 18.21-11.28-2.29-5.7-28.22-14.22-31.98 0.55-3.75 14.78 3.12 31.87 6.36 32.75z" fill="#909090"/>
  <path d="m2490.7 3365.4c7.75 8.12-12.28 6.29-15.68 17.1-3.39 10.82 4.98 20.74-1.1 21.47-6.08 0.72-25.98-18.03-14.88-28.44s29.33-12.57 31.66-10.13z" fill="#848484"/>
  <path d="m2319.8 3675.2c10.81 2.92-0.41-13.84 7.4-22.03 7.82-8.18 20.51-5.58 18.22-11.27-2.29-5.71-28.23-14.22-31.98 0.55-3.76 14.77 3.11 31.87 6.36 32.75z" fill="#fff"/>
  <path d="m2483.7 3361.9c7.75 8.13-12.28 6.3-15.67 17.11-3.4 10.81 4.97 20.74-1.11 21.46-6.07 0.72-25.97-18.03-14.87-28.43 11.1-10.41 29.32-12.57 31.65-10.14z" fill="#fff"/>
  <path d="m2462.3 3645.2c11.73 33.52 30.01 77.44 45.08 90.45 15.82 13.66 24.29 21.61 31.07 19.19 0.65-0.23-8.43-22.74-11.53-23.28-3.05-0.54 20.07 11.29 22.09 8.03 2.59-4.19 3.97-19.07 3.97-19.07s11.44-6.67 15.06-12.89c12.19-20.96 26.91-46.89 41.76-73.45 2.03-3.65-17.02-22.93-17.02-22.93s27.97 5.09 29.96 1.49c4.46-8.03 11.82-21.55 15.48-29.54 12.19-26.62 21.92-50.14 26.91-67.52 2.49-8.66-6.59-15.35-6.59-15.35s17.17-7.13 17.02-7.42c-2.51-4.75-4.22-17.83-45.14-16.77-41.97 1.08-76.6 13.26-91.6 18.73 20.48-7.47-88.19 116.97-76.52 150.33z" fill="#2e8615"/>
  <g clip-path="url(#cp51)">
   <path d="m2567.9 3913.3 253.92-504.05-461.06-232.27-253.92 504.05z" fill="#822005"/>
   <path d="m2453.9 3632.9c11.94 31.9 29.87 72.16 44.24 83.73 15.01 12.08 12.06 10.43 12.06 10.43l-1.69-14.96s22.54 9.34 24.38 6.35c2.37-3.85 2.34-14.62 2.34-14.62s13.4-3.8 16.74-9.54c11.25-19.36 22.13-43.68 35.71-68.01 1.81-3.25-29.02-33.4-29.02-33.4s48.01 2.92 49.8-0.29c4.09-7.4 7.77-10.65 11.15-18.03 11.28-24.59 20.3-46.33 24.99-62.46 2.33-8.04-12.47-22.17-12.47-22.17s19.43-9.77 19.3-10.03c-2.13-4.28-0.92-5.73-38.26-5.86-38.96-0.13-71.76 10.57-86.32 15.55 19.64-6.71-84.81 111.65-72.95 143.31z" fill="#e9631a"/>
   <path d="m2643.3 3496.5c-18.03-0.54-38.38 0.73-38.38 0.73l44.33-14.49s13.91 14.35-5.95 13.76zm-16.72 69.05s19.96 8.75-5.03 0.2c-21.89-7.48-25.94-9.54-25.94-9.54l36.77-3.32zm-54.09 102.68-13.05-20.61 17.32 8.07-20.46-26.55s19.31 10.6 26.68 11.13c7.65 0.54-10.49 27.96-10.49 27.96zm-28.16 35.25s-5.36 20.31-9.56 9.86c-4.01-9.98-22.18-35.17-22.18-35.17zm-25.06-168.07s-14.76-7.76 1.53-6.98c17.63 0.85 76.63 12.62 76.63 12.62zm7.46-23.62s-7.3-0.91-2.78-3.92c1.22-0.81 1.12-1.55 0.65-2.2-4.75-0.51-17.46-2.55 3.73-8.36 29.73-8.15 69.54-5.59 69.54-5.59l-57.98 11.4c17.83 0.48 30.74 1.78 30.74 1.78zm-5.42 91.52s-13.91-5.06-28.17-13.92c-12.65-7.86 3.32-6.61 3.32-6.61zm-59.43 21.98c2.76 8.04 36.19 63.06 36.19 63.06s-21.14-22.58-40.98-56.72c-16.28-28.02 2.15-14.03 4.79-6.34zm8.05-6.25 22.84 36.22s-14.18-13.46-26.96-31.79c-11.06-15.88 4.12-4.43 4.12-4.43z" fill="#872b06"/>
   <g clip-path="url(#cp57)">
    <path d="m2567.9 3913.3 253.92-504.05-461.06-232.27-253.92 504.05z" fill="#411002"/>
    <path d="m2453.9 3632.9c11.94 31.9 29.87 72.16 44.24 83.73 15.01 12.08 12.06 10.43 12.06 10.43l-1.69-14.96s22.54 9.34 24.38 6.35c2.37-3.85 2.34-14.62 2.34-14.62s13.4-3.8 16.74-9.54c11.25-19.36 22.13-43.68 35.71-68.01 1.81-3.25-29.02-33.4-29.02-33.4s48.01 2.92 49.8-0.29c4.09-7.4 7.77-10.65 11.15-18.03 11.28-24.59 20.3-46.33 24.99-62.46 2.33-8.04-12.47-22.17-12.47-22.17s19.43-9.77 19.3-10.03c-2.13-4.28-0.92-5.73-38.26-5.86-38.96-0.13-71.76 10.57-86.32 15.55 19.64-6.71-84.81 111.65-72.95 143.31z" fill="#73310e"/>
    <path d="m2643.3 3496.5c-18.03-0.54-38.38 0.73-38.38 0.73l44.33-14.49s13.91 14.35-5.95 13.76zm-16.72 69.05s19.96 8.75-5.03 0.2c-21.89-7.48-25.94-9.54-25.94-9.54l36.77-3.32zm-54.09 102.68-13.05-20.61 17.32 8.07-20.46-26.55s19.31 10.6 26.68 11.13c7.65 0.54-10.49 27.96-10.49 27.96zm-28.16 35.25s-5.36 20.31-9.56 9.86c-4.01-9.98-22.18-35.17-22.18-35.17zm-25.06-168.07s-14.76-7.76 1.53-6.98c17.63 0.85 76.63 12.62 76.63 12.62zm7.46-23.62s-7.3-0.91-2.78-3.92c1.22-0.81 1.12-1.55 0.65-2.2-4.75-0.51-17.46-2.55 3.73-8.36 29.73-8.15 69.54-5.59 69.54-5.59l-57.98 11.4c17.83 0.48 30.74 1.78 30.74 1.78zm-5.42 91.52s-13.91-5.06-28.17-13.92c-12.65-7.86 3.32-6.61 3.32-6.61zm-59.43 21.98c2.76 8.04 36.19 63.06 36.19 63.06s-21.14-22.58-40.98-56.72c-16.28-28.02 2.15-14.03 4.79-6.34zm8.05-6.25 22.84 36.22s-14.18-13.46-26.96-31.79c-11.06-15.88 4.12-4.43 4.12-4.43z" fill="#431603"/>
   </g>
  </g>
  <path d="m2365.2 3492.8c39.55-80.06 151.59-87.25 169.34-21.5 17.74 65.75-31.2 158.51-98.33 174.69s-108.78-76.77-71.01-153.19z" fill="#4f8e01"/>
  <g clip-path="url(#cp65)">
   <path d="m2567.9 3913.3 253.92-504.05-461.06-232.27-253.92 504.05z" fill="#a5e900"/>
   <path d="m2359 3600.3c95.1 80.48 169.3-40.46 174.23-119.03 13.73-72.62 35.13 50.27 35.13 50.27l-53.89 108.44s-49.81 5.21-55.47 7.66c-5.65 2.45-37.72 9.03-37.72 9.03l-79.45-35.48s-62.22-60.88 17.17-20.89z" fill="#90cb01"/>
   <path d="m2368.1 3521c25.62-43.25 74.01-78.35 126.43-68.03-54.79-33.21-108.41 11.93-126.43 68.03z" fill="#d3ff14"/>
   <path d="m2400.9 3543.7c8.17-21.77 55.35 2.28 57.27 19.89 1.93 17.61-12.97 45.81-34.79 31.13-17.68-11.9-10.08-18.74-13.79-27.86-3.71-9.13-12.32-13.47-8.69-23.16z" fill="#14390e"/>
   <path d="m2427.6 3492.4c-14.33 18.3 30.63 46.29 46.64 38.82 16.02-7.49 32.34-34.88 8.51-45.98-19.31-9-22.34-0.79-32.05 0.76-9.7 1.55-16.73-1.74-23.1 6.4z" fill="#14390e"/>
  </g>
 </g>
</svg>
