<svg version="1.2" xmlns="http://www.w3.org/2000/svg" viewBox="0 0 1066 1000" width="1066" height="1000">
	<defs>
		<clipPath clipPathUnits="userSpaceOnUse" id="cp1">
			<path d="m109.55 893.06c-31.5-64.71 325.39-691 428.61-689.24 103.18 1.75 533.56 598.3 486.29 691-47.22 92.72-839.66 113.71-914.9-1.76z"/>
		</clipPath>
		<clipPath clipPathUnits="userSpaceOnUse" id="cp2">
			<path d="m637.11 819.45c-1.41-15.49 72.58-92.8 99.84-100.63 27.31-7.82 214.42 71.43 228.71 98.53-34.4-5.72-87.07-1.1-87.07-1.1 0 0-100.36 63.34-126.88 63.34-26.52 0-113.18-44.69-114.6-60.14z"/>
		</clipPath>
	</defs>
	<style>
		.s0 { fill: #000000 } 
		.s1 { fill: #f1db20 } 
		.s2 { fill: #fff495 } 
		.s3 { fill: #ffffff } 
		.s4 { opacity: .22;fill: #000000 } 
		.s5 { fill: #b23600 } 
		.s6 { fill: #ffae00 } 
	</style>
	<path class="s0" d="m548.97 0c68.13 47.34 77.58 170.38 28.38 202.56-49.22 32.18-56.79 49.22-56.79 49.22 0 0-24.62 9.46-49.22-24.61-24.59-34.06-92.75-9.47-109.8-1.91 17.05-45.43 62.48-56.77 62.48-56.77 0 0-104.11-30.29-138.2-7.56 38.26-61.92 149.98-57.28 161.82-41.66-30.91-62.54-162.62-95.74-177.57-86.47 43.45-45.73 202-30.15 276.99 48.6 11.36-35.94 3.79-68.13 1.91-81.4zm-100.34 121.18q-0.25-0.99-0.99-1.91 0.51 0.94 0.99 1.91zm-178.56-88.38c-0.42 0.44-0.88 0.85-1.27 1.27q0.34-0.74 1.27-1.27zm-245.46 446.14c3.77 39.77-7.59 83.29 90.86 155.24-17.05-77.63 56.79-124.95 56.79-124.95 0 0-39.77 88.98 34.07 124.95 63.3 30.85 71.92 11.34-35.98 79.5-107.87 68.16-170.35 5.68-170.35 5.68 0 0 51.11 11.37 79.5-34.06-37.87-3.8-119.25-98.45-54.89-206.36z"/>
	<path class="s0" d="m71.93 914.33c81.4 124.95 938.91 102.22 990.03 1.88 51.1-100.31-414.57-745.83-526.24-747.72q-0.26 0-0.48-0.02c-112.3 0.02-497.33 675.91-463.31 745.86z"/>
	<g id="Group 12">
		<g id="Clip-Path" clip-path="url(#cp1)">
			<g>
				<path fill-rule="evenodd" class="s1" d="m109.55 893.06c-31.5-64.71 325.39-691 428.61-689.24 103.18 1.75 533.56 598.3 486.29 691-47.22 92.72-839.66 113.71-914.9-1.76z"/>
				<path fill-rule="evenodd" class="s2" d="m555.61 237.5c9.91-9.21 54.71 22.94 100.09 71.8 45.39 48.87 74.16 95.93 64.24 105.14-9.87 9.18-54.71-22.98-100.06-71.85-45.39-48.86-74.15-95.92-64.27-105.09z"/>
				<path fill-rule="evenodd" class="s3" d="m336.52 988.52c161.91-136.32 512.98-183.62 769.5-26.5 256.47 157.12-75.71 109.78-75.71 109.78l-634.9-34.07c0 0-186.16 57.95-58.89-49.21z"/>
				<path fill-rule="evenodd" class="s4" d="m153.33 725.05c-11.35 121.14-9.48 121.14 15.15 155.21 24.62 34.07 378.58 113.56 859.41 22.71 376.67-66.27-28.41 162.82-28.41 162.82l-783.67 1.87c0 0-119.26-113.57-128.74-123.05-9.45-9.44-9.45-85.15-9.45-109.78 0-24.63 87.07-230.95 75.71-109.78z"/>
			</g>
		</g>
	</g>
	<path class="s0" d="m779.86 706.89c0 40.69 34.68 73.73 77.49 73.73 42.81 0 77.5-33.04 77.5-73.73 0-40.73-34.69-73.74-77.5-73.74-42.81 0-77.49 33.01-77.49 73.74z"/>
	<path class="s3" d="m789.08 710.34c0 29.75 30.57 53.85 68.27 53.85 37.7 0 68.25-24.1 68.25-53.85 0-29.74-30.55-53.85-68.25-53.85-37.7 0-68.27 24.11-68.27 53.85z"/>
	<path class="s0" d="m879.13 710.66c0 10.19 8.67 18.48 19.35 18.48 10.67 0 19.34-8.29 19.34-18.48 0-10.24-8.67-18.49-19.34-18.49-10.68 0-19.35 8.25-19.35 18.49z"/>
	<path class="s5" d="m756.26 655.3c-3.45 6.12 3.42 36.69 12.03 36.69 8.6 0 264.85-44.33 268.27-51.97 3.45-7.66-8.6-55.02-17.2-58.08q-0.26-0.11-0.85-0.11c-18.25 0-258.89 67.48-262.25 73.47z"/>
	<path fill-rule="evenodd" class="s0" d="m616.79 821.29c-1.63-18.06 77.73-106.35 109.66-115.49 31.87-9.09 234.59 58.77 263.94 122.22-38.44 4.25-107.13 2.41-107.13 2.41 0 0-102.46 68.07-133.5 68.07-30.98 0-131.29-59.14-132.97-77.21z"/>
	<g id="Group 22">
		<g id="Clip-Path" clip-path="url(#cp2)">
			<g>
				<path fill-rule="evenodd" class="s6" d="m637.11 819.45c-1.41-15.49 72.58-92.8 99.84-100.63 27.31-7.82 214.42 71.43 228.71 98.53-34.4-5.72-87.07-1.1-87.07-1.1 0 0-100.36 63.34-126.88 63.34-26.52 0-113.18-44.69-114.6-60.14z"/>
				<path fill-rule="evenodd" class="s0" d="m633.6 809.11c29.62-12.87 44.43-28.21 62.28-27.58 17.91 0.69 226.09 26.11 264 41.86 37.87 15.71-46.16 9.51-80.19 0.37-34.08-9.08-156.66-29.31-180.87-27.89-24.16 1.42-58.97 28.21-61.44 36.93-2.42 8.66-33.4-10.88-3.78-23.69z"/>
			</g>
		</g>
	</g>
	<path class="s0" d="m489.48 701.23c0 47.96 42 86.84 93.81 86.84 51.82 0 93.84-38.88 93.84-86.84 0-47.96-42.02-86.83-93.84-86.83-51.81 0-93.81 38.87-93.81 86.83z"/>
	<path class="s3" d="m499.95 705.6c0 36.05 37.05 65.26 82.76 65.26 45.68 0 82.73-29.21 82.73-65.26 0-36.04-37.05-65.26-82.73-65.26-45.71 0-82.76 29.22-82.76 65.26z"/>
	<path class="s0" d="m609.12 706.13c0 12.31 10.49 22.27 23.43 22.27 12.93 0 23.44-9.96 23.44-22.27 0-12.29-10.51-22.25-23.44-22.25-12.94 0-23.43 9.96-23.43 22.25z"/>
	<path class="s5" d="m384.59 607.31c0 6.4 300.52 86.35 309.52 86.35 9.01 0 18.01-46.37 18.01-46.37 0 0-242.95-91.13-287.94-105.54-5.41 9.6-39.59 59.17-39.59 65.56z"/>
</svg>